<?xml version="1.0" standalone="no"?>
<!DOCTYPE svg PUBLIC "-//W3C//DTD SVG 20010904//EN"
 "http://www.w3.org/TR/2001/REC-SVG-20010904/DTD/svg10.dtd">
<svg version="1.0" xmlns="http://www.w3.org/2000/svg"
 width="700.000000pt" height="700.000000pt" viewBox="0 0 700.000000 700.000000"
 preserveAspectRatio="xMidYMid meet">
<metadata>
Created by potrace 1.14, written by Peter Selinger 2001-2017
</metadata>
<g transform="translate(0.000000,700.000000) scale(0.100000,-0.100000)"
fill="#000000" stroke="none">
<path d="M3300 5884 c-14 -2 -65 -9 -115 -15 -411 -49 -846 -240 -1175 -515
-93 -77 -268 -256 -342 -349 -135 -170 -285 -437 -356 -635 -101 -280 -142
-514 -142 -814 0 -520 165 -998 494 -1431 72 -95 299 -331 338 -351 40 -21 83
-17 115 10 23 20 28 32 28 70 0 46 -2 48 -97 139 -696 659 -882 1653 -469
2502 336 689 997 1135 1770 1195 502 39 1024 -116 1439 -427 98 -74 287 -256
365 -353 254 -315 418 -704 467 -1110 15 -123 12 -381 -5 -512 -81 -619 -422
-1164 -945 -1511 -117 -78 -343 -190 -464 -231 -44 -15 -88 -32 -99 -37 -25
-14 -49 -73 -41 -104 8 -32 59 -75 89 -75 42 0 226 70 371 141 608 297 1061
854 1229 1513 53 211 69 342 69 576 0 235 -16 370 -69 576 -209 814 -844 1460
-1648 1674 -209 55 -332 72 -567 75 -118 2 -226 2 -240 -1z"/>
<path d="M3031 4829 c-59 -71 -96 -100 -174 -139 -141 -68 -311 -106 -571
-126 -70 -5 -83 -10 -108 -34 -40 -40 -39 -91 3 -132 l30 -31 122 6 c330 17
624 111 769 246 99 91 121 159 69 212 -23 23 -38 29 -71 29 -35 0 -47 -5 -69
-31z"/>
<path d="M3837 4840 c-112 -89 63 -281 343 -377 160 -55 384 -93 545 -93 60 0
69 3 96 29 45 46 35 121 -20 151 -10 5 -78 14 -150 20 -223 18 -402 62 -532
131 -54 29 -77 49 -156 135 -29 31 -89 33 -126 4z"/>
<path d="M3338 4044 c-340 -52 -638 -269 -795 -579 -82 -161 -115 -309 -112
-503 l2 -133 -36 -37 c-76 -78 -102 -200 -86 -402 24 -304 67 -656 95 -780 8
-36 42 -122 76 -192 l61 -127 -41 -188 c-87 -403 -86 -399 -72 -433 7 -17 25
-37 41 -45 70 -37 131 2 149 93 7 31 36 171 66 310 30 139 54 263 54 276 0 13
-30 86 -66 162 -36 76 -72 166 -79 199 -29 124 -95 714 -95 845 0 107 35 174
88 168 34 -4 54 -40 91 -164 41 -136 88 -178 165 -143 29 14 41 36 106 204 85
222 254 551 318 618 54 57 76 56 140 -9 24 -25 42 -34 67 -34 52 0 63 8 111
81 54 82 103 117 140 100 13 -6 33 -25 45 -43 17 -27 19 -43 14 -88 -13 -109
-11 -121 25 -152 33 -31 45 -32 122 -13 15 4 40 4 54 1 26 -7 27 -8 22 -77 -4
-55 -14 -87 -42 -142 -55 -109 -51 -128 43 -206 31 -25 35 -34 39 -90 4 -61 3
-66 -61 -189 -54 -106 -71 -151 -101 -277 -66 -268 -77 -309 -113 -405 -19
-52 -62 -148 -95 -214 -53 -104 -71 -128 -144 -199 -49 -47 -89 -96 -98 -118
-18 -45 -65 -353 -68 -452 -3 -61 -1 -69 24 -94 39 -38 97 -38 135 -1 24 24
28 40 39 140 7 62 20 162 30 222 l17 108 87 87 c82 81 92 96 163 241 86 174
137 322 191 552 l37 157 53 39 c128 97 261 262 325 403 76 170 107 328 98 513
-24 527 -418 951 -942 1015 -113 14 -177 13 -287 -5z"/>
</g>
</svg>
